<svg width="11" height="12" viewBox="0 0 11 12" fill="none" xmlns="http://www.w3.org/2000/svg">
  <path
    d="M7.00199 4.98L5.50033 6.39333L3.99158 4.98L2.99283 5.92L4.50158 7.33333L2.99991 8.74667L3.99866 9.68667L5.50033 8.27333L7.00199 9.68667L8.00074 8.74667L6.49908 7.33333L8.00074 5.92L7.00199 4.98ZM7.97949 0.666667L7.27116 0H3.72949L3.02116 0.666667H0.541992V2H10.4587V0.666667H7.97949ZM1.25033 10.6667C1.25033 11.4 1.88783 12 2.66699 12H8.33366C9.11283 12 9.75033 11.4 9.75033 10.6667V2.66667H1.25033V10.6667ZM2.66699 4H8.33366V10.6667H2.66699V4Z"
    fill="#323232" />
</svg>