<svg width="31" height="25" viewBox="0 0 31 25" fill="none" xmlns="http://www.w3.org/2000/svg">
<path d="M15.5 7L10 12.5L14.125 12.5L14.125 24.875L16.875 24.875L16.875 12.5L21 12.5L15.5 7ZM3.125 24.875L11.375 24.875L11.375 22.1387L3.125 22.1387L3.125 2.8475L27.875 2.8475L27.875 22.1387L19.625 22.1387L19.625 24.875L27.875 24.875C29.3875 24.875 30.625 23.6375 30.625 22.125L30.625 2.875C30.625 1.3625 29.3875 0.124998 27.875 0.124998L3.125 0.124996C1.6125 0.124996 0.375 1.36249 0.375 2.875L0.374998 22.125C0.374998 23.6375 1.6125 24.875 3.125 24.875ZM15.5 7L10 12.5L14.125 12.5L14.125 24.875L16.875 24.875L16.875 12.5L21 12.5L15.5 7ZM3.125 24.875L11.375 24.875L11.375 22.1387L3.125 22.1387L3.125 2.8475L27.875 2.8475L27.875 22.1387L19.625 22.1387L19.625 24.875L27.875 24.875C29.3875 24.875 30.625 23.6375 30.625 22.125L30.625 2.875C30.625 1.3625 29.3875 0.124998 27.875 0.124998L3.125 0.124996C1.6125 0.124996 0.375 1.36249 0.375 2.875L0.374998 22.125C0.374998 23.6375 1.6125 24.875 3.125 24.875Z" fill="#313131"/>
</svg>
