<svg width="1018" height="1058" viewBox="0 0 1018 1058" fill="none" xmlns="http://www.w3.org/2000/svg">
<path d="M1017.29 545.115C1017.29 827.043 789.661 1055.59 508.874 1055.59C228.087 1055.59 0.462822 827.043 0.462822 545.115C0.462822 263.186 228.087 34.6404 508.874 34.6404C789.661 34.6404 1017.29 263.186 1017.29 545.115Z" stroke="#a1a1a1" stroke-width="0.589462"/>
<path d="M1015.52 787.384C1015.52 936.487 895.04 1057.36 746.427 1057.36C597.814 1057.36 477.338 936.487 477.338 787.384C477.338 638.28 597.814 517.41 746.427 517.41C895.04 517.41 1015.52 638.28 1015.52 787.384Z" stroke="#a1a1a1" stroke-width="0.589462"/>
<path d="M560.957 39.7684C561.969 39.7684 562.79 38.858 562.79 37.7348C562.79 36.6117 561.969 35.7012 560.957 35.7012C559.945 35.7012 559.124 36.6117 559.124 37.7348C559.124 38.858 559.945 39.7684 560.957 39.7684Z" fill="#4145FF"/>
<path d="M550.569 38.4129C551.582 38.4129 552.402 37.5024 552.402 36.3793C552.402 35.2561 551.582 34.3456 550.569 34.3456C549.557 34.3456 548.736 35.2561 548.736 36.3793C548.736 37.5024 549.557 38.4129 550.569 38.4129Z" fill="#4145FF"/>
<path d="M514.474 70.3027C533.519 70.3027 548.957 54.8638 548.957 35.8191C548.957 16.7744 533.519 1.33559 514.474 1.33559C495.429 1.33559 479.99 16.7744 479.99 35.8191C479.99 54.8638 495.429 70.3027 514.474 70.3027Z" stroke="#4145FF" stroke-width="2.35785"/>
<path d="M513.295 36.3792C514.307 36.3792 515.128 35.4687 515.128 34.3456C515.128 33.2224 514.307 32.312 513.295 32.312C512.283 32.312 511.462 33.2224 511.462 34.3456C511.462 35.4687 512.283 36.3792 513.295 36.3792Z" fill="#4145FF"/>
</svg>
